<svg xmlns="http://www.w3.org/2000/svg">
    <defs>

        <symbol id="close" viewBox="0 0 25 25">
            <path fill-rule="evenodd" clip-rule="evenodd"
                  d="M18.7071 5.29289C19.0976 5.68342 19.0976 6.31658 18.7071 6.70711L6.70711 18.7071C6.31658 19.0976 5.68342 19.0976 5.29289 18.7071C4.90237 18.3166 4.90237 17.6834 5.29289 17.2929L17.2929 5.29289C17.6834 4.90237 18.3166 4.90237 18.7071 5.29289Z"
                  fill="currentColor"/>
            <path fill-rule="evenodd" clip-rule="evenodd"
                  d="M5.29289 5.29289C5.68342 4.90237 6.31658 4.90237 6.70711 5.29289L18.7071 17.2929C19.0976 17.6834 19.0976 18.3166 18.7071 18.7071C18.3166 19.0976 17.6834 19.0976 17.2929 18.7071L5.29289 6.70711C4.90237 6.31658 4.90237 5.68342 5.29289 5.29289Z"
                  fill="currentColor"/>
        </symbol>

        <symbol id="arrow-down">
            <path fill-rule="evenodd" clip-rule="evenodd"
                  d="M4.29289 8.29289C4.68342 7.90237 5.31658 7.90237 5.70711 8.29289L13 15.5858L20.2929 8.29289C20.6834 7.90237 21.3166 7.90237 21.7071 8.29289C22.0976 8.68342 22.0976 9.31658 21.7071 9.70711L13.7071 17.7071C13.3166 18.0976 12.6834 18.0976 12.2929 17.7071L4.29289 9.70711C3.90237 9.31658 3.90237 8.68342 4.29289 8.29289Z"
                  fill="currentColor"/>
        </symbol>

        <symbol id="tooltip" viewBox="0 0 25 25">
            <path fill-rule="evenodd" clip-rule="evenodd"
                  d="M12 3C7.02944 3 3 7.02944 3 12C3 16.9706 7.02944 21 12 21C16.9706 21 21 16.9706 21 12C21 7.02944 16.9706 3 12 3ZM1 12C1 5.92487 5.92487 1 12 1C18.0751 1 23 5.92487 23 12C23 18.0751 18.0751 23 12 23C5.92487 23 1 18.0751 1 12Z"
                  fill="currentColor"/>
            <path fill-rule="evenodd" clip-rule="evenodd"
                  d="M12.2582 8.02428C11.7927 7.94443 11.314 8.03191 10.9068 8.27123C10.4996 8.51054 10.1902 8.88625 10.0335 9.3318C9.85018 9.85279 9.27926 10.1266 8.75827 9.9433C8.23728 9.76002 7.96351 9.18911 8.14678 8.66812C8.46025 7.77701 9.07898 7.02559 9.89339 6.54696C10.7078 6.06833 11.6653 5.89337 12.5964 6.05307C13.5274 6.21277 14.3719 6.69682 14.9802 7.41949C15.5884 8.14201 15.9214 9.05644 15.9201 10.0009C15.9197 11.5312 14.7851 12.5419 13.9748 13.082C13.5392 13.3724 13.1107 13.586 12.795 13.7263C12.6358 13.7971 12.5016 13.8508 12.405 13.8876C12.3566 13.906 12.3174 13.9203 12.2888 13.9305L12.2541 13.9426L12.243 13.9464L12.2391 13.9477L12.2376 13.9482C12.2373 13.9483 12.2363 13.9486 11.9201 13L12.2363 13.9486C11.7124 14.1233 11.1461 13.8401 10.9714 13.3162C10.7969 12.7926 11.0796 12.2267 11.6028 12.0516L11.6016 12.0521C11.6017 12.052 11.6018 12.052 11.6028 12.0516L11.6188 12.046C11.6342 12.0406 11.6594 12.0314 11.693 12.0186C11.7605 11.9929 11.8607 11.9529 11.9827 11.8986C12.2296 11.7889 12.551 11.6275 12.8654 11.4179C13.555 10.9582 13.9201 10.4691 13.9201 9.99996L13.9201 9.99847C13.9208 9.52615 13.7543 9.06883 13.4502 8.70749C13.146 8.34615 12.7238 8.10413 12.2582 8.02428Z"
                  fill="currentColor"/>
            <path fill-rule="evenodd" clip-rule="evenodd"
                  d="M12 15C12.5523 15 13 15.4477 13 16V16.5C13 17.0523 12.5523 17.5 12 17.5C11.4477 17.5 11 17.0523 11 16.5V16C11 15.4477 11.4477 15 12 15Z"
                  fill="currentColor"/>
        </symbol>

        <symbol id="theme-light" viewBox="0 0 25 25">
            <path d="M4,12c0-.55-.45-1-1-1H1c-.55,0-1,.45-1,1s.45,1,1,1H3c.55,0,1-.45,1-1Z"
                  fill="currentColor"/>
            <path d="M4.93,17.65l-1.42,1.42c-.39,.39-.39,1.02,0,1.41s1.02,.39,1.41,0l1.42-1.42c.39-.39,.39-1.02,0-1.41-.39-.39-1.02-.39-1.41,0Z"
                  fill="currentColor"/>
            <path d="M12,4c.55,0,1-.45,1-1V1c0-.55-.45-1-1-1s-1,.45-1,1V3c0,.55,.45,1,1,1Z"
                  fill="currentColor"/>
            <path d="M19.07,6.35l1.42-1.42c.39-.39,.39-1.02,0-1.41-.39-.39-1.02-.39-1.41,0l-1.42,1.42c-.39,.39-.39,1.02,0,1.41s1.02,.39,1.41,0Z"
                  fill="currentColor"/>
            <path d="M4.93,6.35c.39,.39,1.02,.39,1.41,0,.39-.39,.39-1.02,0-1.41l-1.42-1.42c-.39-.39-1.02-.39-1.41,0-.39,.39-.39,1.02,0,1.41l1.42,1.42Z"
                  fill="currentColor"/>
            <path d="M19.07,17.65c-.39-.39-1.02-.39-1.41,0s-.39,1.02,0,1.41l1.42,1.42c.39,.39,1.02,.39,1.41,0s.39-1.02,0-1.41l-1.42-1.42Z"
                  fill="currentColor"/>
            <path d="M12,20c-.55,0-1,.45-1,1v2c0,.55,.45,1,1,1s1-.45,1-1v-2c0-.55-.45-1-1-1Z"
                  fill="currentColor"/>
            <path d="M23,11h-2c-.55,0-1,.45-1,1s.45,1,1,1h2c.55,0,1-.45,1-1s-.45-1-1-1Z"
                  fill="currentColor"/>
            <path d="M12,6c-3.31,0-6,2.69-6,6s2.69,6,6,6,6-2.69,6-6-2.69-6-6-6Zm0,10c-2.21,0-4-1.79-4-4s1.79-4,4-4,4,1.79,4,4-1.79,4-4,4Z"
                  fill="currentColor"/>
        </symbol>

        <symbol id="error" viewBox="0 0 25 25">
            <path fill-rule="evenodd" clip-rule="evenodd"
                  d="M10.5282 2.28306C10.9775 2.0301 11.4844 1.89722 12 1.89722C12.5156 1.89722 13.0225 2.0301 13.4718 2.28306C13.9211 2.53601 14.2976 2.90049 14.565 3.34133L14.5679 3.34608L23.0379 17.4861L23.046 17.4999C23.308 17.9535 23.4466 18.4678 23.448 18.9917C23.4495 19.5155 23.3138 20.0306 23.0544 20.4857C22.795 20.9408 22.4209 21.32 21.9694 21.5857C21.518 21.8513 21.0048 21.9941 20.481 21.9999L20.47 22L3.51903 22C2.99522 21.9942 2.48206 21.8513 2.03059 21.5857C1.57912 21.32 1.20507 20.9408 0.94567 20.4857C0.686267 20.0306 0.550547 19.5155 0.552014 18.9917C0.55348 18.4678 0.692083 17.9535 0.95403 17.4999L0.962153 17.4861L9.43215 3.34609L10.29 3.85995L9.43502 3.34133C9.70243 2.90049 10.0789 2.53601 10.5282 2.28306ZM11.1462 4.3766L2.68271 18.5058C2.59753 18.6556 2.55249 18.8249 2.55201 18.9973C2.55152 19.1719 2.59676 19.3436 2.68322 19.4953C2.76969 19.647 2.89438 19.7734 3.04487 19.8619C3.19404 19.9497 3.36342 19.9973 3.53642 20H20.4636C20.6366 19.9973 20.806 19.9497 20.9552 19.8619C21.1057 19.7734 21.2303 19.647 21.3168 19.4953C21.4033 19.3436 21.4485 19.1719 21.448 18.9973C21.4476 18.8249 21.4025 18.6556 21.3174 18.5058L12.855 4.37859C12.8546 4.37792 12.8542 4.37726 12.8538 4.3766C12.7648 4.23054 12.6397 4.10977 12.4906 4.02583C12.3409 3.94151 12.1719 3.89722 12 3.89722C11.8282 3.89722 11.6592 3.94151 11.5094 4.02583C11.3603 4.10977 11.2353 4.23054 11.1462 4.3766Z"
                  fill="currentColor"/>
            <path fill-rule="evenodd" clip-rule="evenodd"
                  d="M12 8C12.5523 8 13 8.44772 13 9V13C13 13.5523 12.5523 14 12 14C11.4477 14 11 13.5523 11 13V9C11 8.44772 11.4477 8 12 8Z"
                  fill="currentColor"/>
            <path fill-rule="evenodd" clip-rule="evenodd"
                  d="M12 15C12.5523 15 13 15.4477 13 16V16.5C13 17.0523 12.5523 17.5 12 17.5C11.4477 17.5 11 17.0523 11 16.5V16C11 15.4477 11.4477 15 12 15Z"
                  fill="currentColor"/>
        </symbol>

        <symbol id="theme-dark" viewBox="0 0 25 25">
            <path fill-rule="evenodd" clip-rule="evenodd"
                  d="M12.0811 2.50904C12.2746 2.85242 12.2484 3.27745 12.0141 3.59442C11.1598 4.75008 10.7488 6.17395 10.8557 7.60706C10.9625 9.04018 11.5802 10.3873 12.5964 11.4035C13.6126 12.4197 14.9597 13.0374 16.3929 13.1443C17.826 13.2511 19.2498 12.8401 20.4055 11.9859L20.9999 12.79L21.9957 12.882C21.8209 14.7734 21.1111 16.5758 19.9493 18.0785C18.7875 19.5811 17.2218 20.7218 15.4353 21.3671C13.6489 22.0124 11.7156 22.1355 9.86177 21.7221C8.0079 21.3088 6.3101 20.376 4.96702 19.0329C3.62394 17.6898 2.69115 15.992 2.27778 14.1381C1.86441 12.2843 1.98757 10.351 2.63284 8.56459C3.27811 6.77816 4.4188 5.21244 5.92145 4.05065C7.4241 2.88886 9.22654 2.17904 11.1179 2.00426C11.5104 1.96799 11.8876 2.16566 12.0811 2.50904ZM19.5608 14.6836C18.5077 15.0646 17.3781 15.2233 16.2441 15.1387C14.3333 14.9962 12.5371 14.1726 11.1822 12.8177C9.82729 11.4628 9.0037 9.66661 8.8612 7.7558C8.77664 6.62183 8.93528 5.4922 9.31629 4.43908C8.53868 4.72043 7.8055 5.12204 7.14478 5.63289C5.94266 6.56232 5.0301 7.81489 4.51389 9.24404C3.99767 10.6732 3.89914 12.2198 4.22984 13.7029C4.56054 15.186 5.30677 16.5442 6.38123 17.6187C7.45569 18.6931 8.81394 19.4394 10.297 19.7701C11.7801 20.1008 13.3267 20.0022 14.7559 19.486C16.185 18.9698 17.4376 18.0573 18.367 16.8551C18.8779 16.1944 19.2795 15.4612 19.5608 14.6836Z"
                  fill="currentColor"/>
        </symbol>

        <symbol id="checked" viewBox="0 0 15 12">
            <path fill-rule="evenodd" clip-rule="evenodd"
                  d="M13.9965 0.378902C14.6157 0.929279 14.6715 1.87739 14.1211 2.49656L6.12111 11.4966C5.84665 11.8053 5.457 11.9872 5.04406 11.9994C4.63112 12.0115 4.23146 11.8528 3.93934 11.5607L0.43934 8.06068C-0.146447 7.47489 -0.146447 6.52514 0.43934 5.93936C1.02513 5.35357 1.97487 5.35357 2.56066 5.93936L4.93577 8.31447L11.8789 0.50347C12.4293 -0.115704 13.3774 -0.171475 13.9965 0.378902Z"
                  fill="currentColor"/>
        </symbol>

        <symbol id="success" viewBox="0 0 25 25">
            <path fill-rule="evenodd" clip-rule="evenodd"
                  d="M15.663 3.77342C13.8902 2.98352 11.9096 2.78783 10.0166 3.21555C8.12351 3.64326 6.41942 4.67145 5.15845 6.14678C3.89749 7.62211 3.14721 9.46552 3.01951 11.4021C2.89181 13.3387 3.39354 15.2646 4.44987 16.8928C5.50619 18.5209 7.06051 19.764 8.88102 20.4365C10.7015 21.1091 12.6907 21.1752 14.5518 20.6249C16.413 20.0746 18.0464 18.9375 19.2084 17.3831C20.3705 15.8286 20.9989 13.9402 21 11.9994V11.08C21 10.5277 21.4477 10.08 22 10.08C22.5523 10.08 23 10.5277 23 11.08V12C22.9986 14.3721 22.2306 16.6807 20.8103 18.5806C19.39 20.4804 17.3936 21.8703 15.1189 22.5428C12.8442 23.2154 10.413 23.1346 8.18792 22.3126C5.96285 21.4906 4.06312 19.9713 2.77206 17.9813C1.48099 15.9914 0.86777 13.6374 1.02384 11.2705C1.17992 8.90358 2.09693 6.65052 3.63811 4.84734C5.17929 3.04416 7.26206 1.78748 9.57581 1.26472C11.8896 0.74196 14.3103 0.981129 16.477 1.94656C16.9815 2.17134 17.2082 2.76252 16.9834 3.26699C16.7587 3.77146 16.1675 3.9982 15.663 3.77342Z"
                  fill="currentColor"/>
            <path fill-rule="evenodd" clip-rule="evenodd"
                  d="M22.7068 3.29254C23.0975 3.68287 23.0978 4.31603 22.7075 4.70675L12.7075 14.7168C12.52 14.9044 12.2656 15.0099 12.0002 15.01C11.7349 15.0101 11.4805 14.9047 11.2929 14.7171L8.29289 11.7171C7.90237 11.3266 7.90237 10.6934 8.29289 10.3029C8.68342 9.91237 9.31658 9.91237 9.70711 10.3029L11.9996 12.5954L21.2925 3.29325C21.6829 2.90253 22.316 2.90221 22.7068 3.29254Z"
                  fill="currentColor"/>
        </symbol>

        <symbol id="search">
            <path fill-rule="evenodd" clip-rule="evenodd"
                  d="M11 4C7.13401 4 4 7.13401 4 11C4 14.866 7.13401 18 11 18C14.866 18 18 14.866 18 11C18 7.13401 14.866 4 11 4ZM2 11C2 6.02944 6.02944 2 11 2C15.9706 2 20 6.02944 20 11C20 15.9706 15.9706 20 11 20C6.02944 20 2 15.9706 2 11Z"
                  fill="currentColor"/>
            <path fill-rule="evenodd" clip-rule="evenodd"
                  d="M15.9428 15.9429C16.3333 15.5524 16.9665 15.5524 17.357 15.9429L21.707 20.2929C22.0975 20.6834 22.0975 21.3166 21.707 21.7071C21.3165 22.0977 20.6833 22.0977 20.2928 21.7071L15.9428 17.3571C15.5523 16.9666 15.5523 16.3334 15.9428 15.9429Z"
                  fill="currentColor"/>
        </symbol>

        <symbol id="radio">
            <rect width="18" height="18" rx="9" fill="currentColor"/>
        </symbol>


        <symbol id="burger">
            <path d="M3 12H21" stroke="currentColor" stroke-width="2" stroke-linecap="round" stroke-linejoin="round"/>
            <path d="M3 6H21" stroke="currentColor" stroke-width="2" stroke-linecap="round" stroke-linejoin="round"/>
            <path d="M3 18H21" stroke="currentColor" stroke-width="2" stroke-linecap="round" stroke-linejoin="round"/>
        </symbol>


    </defs>
</svg>